<?xml version="1.0" standalone="no"?>
<!DOCTYPE svg PUBLIC "-//W3C//DTD SVG 20010904//EN"
 "http://www.w3.org/TR/2001/REC-SVG-20010904/DTD/svg10.dtd">
<svg version="1.0" xmlns="http://www.w3.org/2000/svg"
 width="900.000000pt" height="900.000000pt" viewBox="0 0 900.000000 900.000000"
 preserveAspectRatio="xMidYMid meet">
<metadata>
Created by potrace 1.10, written by Peter Selinger 2001-2011
</metadata>
<g transform="translate(0.000000,900.000000) scale(0.100000,-0.100000)"
fill="#696868" stroke="none">
<path d="M0 8143 l0 -858 837 3 c461 1 842 7 846 11 5 5 10 389 11 855 l3 846
-849 0 -848 0 0 -857z m1447 593 c0 0 4 -269 9 -596 6 -521 5 -597 -8 -608
-12 -9 -149 -11 -606 -9 -325 1 -594 6 -599 10 -13 13 -15 1187 -2 1203 8 10
127 12 607 7 328 -3 598 -6 599 -7z"/>
<path d="M575 8491 l-80 -6 -3 -344 c-2 -247 1 -348 9 -357 10 -12 73 -14 358
-12 l346 3 0 360 0 360 -275 1 c-151 0 -311 -2 -355 -5z"/>
<path d="M1942 8633 l3 -368 353 0 c303 0 354 -2 362 -15 14 -22 13 -213 -2
-228 -8 -8 -48 -12 -114 -12 -75 0 -105 -4 -113 -14 -8 -9 -11 -50 -9 -117 l3
-104 240 0 240 0 3 109 c1 61 8 116 14 123 8 10 62 13 232 13 121 0 227 4 234
8 9 6 12 37 10 118 l-3 109 -230 5 c-126 3 -235 8 -241 12 -16 11 -19 445 -3
464 9 10 39 14 120 14 l109 0 0 125 0 125 -365 0 -365 0 0 -125 c0 -144 17
-128 -135 -125 -49 1 -92 4 -94 6 -3 3 -4 42 -2 88 1 46 -1 100 -4 120 l-7 36
-119 0 -119 0 2 -367z"/>
<path d="M3400 8880 c0 -142 6 -136 -135 -139 -49 -1 -94 -6 -98 -10 -4 -4 -6
-57 -5 -117 l3 -109 215 -3 c118 -1 225 0 238 3 21 5 22 9 22 120 0 134 -12
124 145 128 l100 2 3 123 3 122 -246 0 -245 0 0 -120z"/>
<path d="M4370 8756 c0 -169 -3 -247 -11 -252 -6 -4 -53 -6 -103 -5 -50 1 -99
-1 -109 -5 -15 -6 -17 -28 -17 -234 0 -126 -4 -231 -8 -234 -4 -2 -111 -7
-236 -10 -126 -3 -230 -7 -231 -8 -4 -4 -8 -322 -6 -410 l1 -68 115 0 c134 0
124 -11 128 140 l2 95 115 0 115 0 5 -115 5 -115 115 0 115 0 5 240 5 240 113
3 c78 2 114 6 117 15 2 7 5 112 7 234 2 122 5 224 8 227 5 4 355 16 458 16 9
0 12 28 12 108 0 71 4 112 12 120 13 13 202 17 232 6 14 -5 16 -35 16 -234 0
-153 4 -231 11 -235 6 -4 57 -8 114 -9 57 0 107 -5 112 -9 4 -5 9 -108 9 -230
1 -122 2 -230 3 -239 1 -16 13 -18 110 -18 84 0 111 -3 121 -15 9 -11 11 -65
5 -230 -6 -166 -5 -218 5 -230 9 -11 35 -15 107 -15 144 0 134 -19 126 243 -5
189 -4 224 9 234 10 9 81 13 244 15 l229 3 2 100 c4 158 -6 146 126 143 l112
-3 3 -122 c2 -94 0 -123 -10 -124 -7 -1 -56 -2 -110 -3 -53 0 -100 -5 -104 -9
-11 -11 -18 -148 -10 -192 l7 -35 110 0 c82 0 111 -3 115 -13 2 -7 6 -171 7
-363 l2 -349 355 -5 c195 -3 361 -9 368 -13 8 -6 12 -41 12 -118 l0 -109 -114
0 c-80 0 -117 -4 -122 -12 -13 -21 -4 -702 9 -710 7 -4 53 -8 102 -8 50 0 96
-4 104 -9 11 -7 14 -35 14 -114 0 -57 -3 -109 -7 -115 -5 -8 -42 -12 -105 -12
-62 0 -101 -4 -109 -12 -8 -8 -12 -49 -12 -120 0 -126 12 -117 -145 -121
l-100 -2 -3 -224 c-1 -142 -6 -229 -13 -237 -8 -9 -46 -14 -122 -16 l-112 -3
-3 -109 c-2 -81 1 -112 10 -118 7 -4 61 -8 120 -8 127 0 120 8 116 -140 l-3
-95 -109 -3 c-61 -1 -116 -8 -123 -14 -16 -13 -18 -180 -3 -209 10 -17 22 -19
113 -19 67 0 107 -4 115 -12 17 -17 17 -448 0 -469 -11 -12 -66 -13 -363 -9
l-350 5 -3 116 -3 116 -107 5 c-59 3 -113 3 -119 1 -9 -4 -13 -36 -13 -113 0
-80 -4 -111 -14 -119 -9 -8 -50 -11 -117 -9 l-104 3 -5 230 c-3 127 -9 236
-13 243 -11 16 -42 16 -55 -1 -6 -7 -14 -33 -18 -57 -9 -61 -55 -155 -114
-236 -43 -59 -50 -75 -50 -116 0 -29 -6 -52 -16 -62 -12 -12 -14 -26 -9 -55 5
-29 1 -49 -14 -80 -33 -65 -86 -82 -168 -56 -16 5 -23 2 -28 -15 -4 -12 -2
-27 4 -33 14 -14 202 -18 219 -5 8 7 12 43 12 112 0 55 4 107 8 114 6 9 37 12
118 10 l109 -3 3 -230 c2 -207 1 -231 -15 -242 -21 -16 -448 -19 -458 -3 -4 6
-9 59 -12 118 -3 59 -6 108 -7 109 -7 8 -219 4 -227 -4 -6 -6 -9 -55 -7 -119
l3 -109 113 -3 c133 -3 129 1 130 -130 1 -48 6 -90 13 -98 9 -12 72 -14 359
-14 321 0 348 1 355 17 3 10 5 116 4 236 -1 128 2 222 8 228 6 6 147 8 359 7
l349 -3 5 -240 c3 -132 7 -241 8 -242 1 -2 51 -3 111 -3 77 0 112 -4 118 -12
4 -7 8 -60 9 -116 1 -78 4 -106 15 -113 17 -11 199 -12 216 -1 8 5 13 46 15
122 l3 115 109 3 c71 2 113 -1 122 -9 10 -8 14 -39 14 -119 0 -89 3 -109 16
-114 9 -3 60 -6 113 -6 l98 0 6 63 c9 95 -4 640 -16 655 -6 8 -41 12 -106 12
-62 0 -101 4 -109 12 -15 15 -16 191 -2 219 10 17 22 19 113 19 67 0 107 4
115 12 8 8 12 49 12 119 0 88 3 108 16 113 9 3 112 6 229 6 181 0 216 -2 229
-16 14 -13 16 -49 16 -239 0 -194 2 -224 16 -229 24 -9 187 -7 202 3 9 5 16
44 20 117 l7 109 117 3 117 3 3 -118 3 -118 123 -3 122 -3 0 121 0 120 -125 0
-124 0 -3 117 -3 118 -110 3 c-89 2 -112 6 -122 19 -9 11 -13 53 -13 119 0 84
-3 103 -16 108 -9 3 -114 6 -233 6 l-218 0 -6 51 c-4 28 -4 71 0 94 3 24 2
109 -2 189 l-7 146 -119 0 -119 0 0 -109 c0 -77 -4 -112 -13 -119 -7 -6 -60
-13 -118 -14 l-104 -3 -5 -114 c-4 -95 -8 -115 -22 -120 -9 -3 -63 -4 -120 -1
l-103 5 0 115 0 115 115 5 115 5 3 118 3 117 -108 0 c-59 0 -114 4 -121 8 -9
6 -12 37 -10 118 l3 109 109 3 c71 2 113 -1 122 -9 10 -8 14 -39 14 -120 l0
-109 115 0 114 0 3 118 3 117 120 5 120 5 3 229 c1 149 6 234 13 243 8 9 41
13 114 13 72 0 106 4 113 13 6 7 13 62 14 123 l3 109 113 3 c61 1 112 6 113
10 0 4 3 50 5 103 3 72 1 99 -9 107 -7 6 -60 13 -118 14 l-104 3 -3 109 c-2
67 -7 115 -15 124 -10 13 -62 14 -353 10 -208 -4 -347 -2 -358 4 -15 9 -16 29
-11 236 4 125 8 233 10 240 3 8 34 12 109 12 101 0 106 1 111 23 3 12 4 119 3
237 l-3 215 -353 3 c-269 2 -354 5 -357 15 -2 6 -6 277 -9 601 -2 328 -8 592
-13 597 -5 5 -161 8 -359 7 l-349 -3 -3 -110 c-2 -89 -6 -112 -19 -122 -11 -9
-52 -13 -115 -13 -118 0 -118 0 -118 133 0 66 -4 98 -13 105 -7 6 -60 13 -118
14 l-104 3 -2 104 c-1 62 -6 108 -13 115 -6 6 -58 13 -118 16 l-107 5 -3 248
-2 247 -610 0 -610 0 0 -244z m3644 -2932 c13 -12 16 -38 16 -117 0 -56 -4
-107 -8 -114 -8 -13 -221 -21 -240 -9 -8 5 -12 43 -12 116 0 140 0 140 130
140 76 0 102 -4 114 -16z m-726 -2436 c8 -8 12 -48 12 -114 0 -136 0 -137
-137 -132 -79 2 -106 7 -113 18 -13 20 -13 196 0 221 10 17 22 19 118 19 71 0
112 -4 120 -12z"/>
<path d="M6800 8875 l0 -125 -355 0 c-340 0 -355 -1 -365 -19 -14 -28 -13
-204 2 -219 9 -9 129 -12 480 -12 435 0 468 1 476 18 7 13 8 274 3 455 l-1 27
-120 0 -120 0 0 -125z"/>
<path d="M7298 8503 c-3 -553 4 -1198 13 -1208 4 -3 385 -7 848 -8 l841 -2 0
858 0 857 -849 0 -850 0 -3 -497z m1442 231 c7 -7 9 -198 8 -610 l-3 -599
-602 -3 c-581 -2 -603 -1 -612 17 -7 12 -8 84 -2 207 4 104 6 354 3 555 -2
202 -2 383 2 402 4 21 14 37 24 40 38 10 1171 2 1182 -9z"/>
<path d="M7792 8478 c-15 -15 -18 -693 -2 -703 5 -3 164 -6 352 -5 297 0 345
2 354 16 9 11 12 113 10 357 l-1 342 -350 3 c-265 2 -354 -1 -363 -10z"/>
<path d="M3945 8740 l-50 -5 0 -115 0 -115 118 -3 117 -3 0 116 c0 84 -3 117
-12 119 -26 8 -124 12 -173 6z"/>
<path d="M3712 8493 l-63 -4 3 -112 3 -112 115 0 115 0 3 104 c1 57 -1 108 -6
113 -10 10 -90 16 -170 11z"/>
<path d="M4872 8252 c-9 -6 -12 -37 -10 -118 l3 -109 113 -3 113 -3 -3 118 -3
118 -100 3 c-55 1 -106 -2 -113 -6z"/>
<path d="M4624 7997 c-2 -7 -3 -60 -2 -118 l3 -104 113 -3 112 -3 0 121 0 120
-110 0 c-82 0 -112 -3 -116 -13z"/>
<path d="M5107 8003 c-10 -9 -8 -206 2 -222 6 -10 35 -13 111 -12 56 1 107 4
111 7 14 8 11 208 -3 222 -13 13 -209 18 -221 5z"/>
<path d="M1944 7756 c-2 -6 -3 -222 -2 -481 l3 -470 115 -5 115 -5 2 -95 c2
-52 5 -105 8 -117 l5 -23 354 0 c271 0 356 -3 364 -12 14 -18 14 -939 0 -955
-7 -9 -42 -13 -108 -13 -54 0 -105 -3 -114 -6 -13 -5 -16 -24 -16 -104 0 -54
-3 -105 -6 -114 -5 -13 -26 -16 -125 -16 l-119 0 0 108 c0 59 4 112 8 119 4 6
53 14 120 18 l113 8 -3 111 -3 111 -224 3 c-141 1 -228 -1 -236 -8 -8 -7 -11
-33 -7 -84 2 -41 2 -90 -2 -109 l-6 -34 -352 -7 c-307 -6 -353 -5 -366 8 -22
22 -26 202 -5 235 l15 23 232 -3 231 -4 0 110 0 110 -50 8 c-27 4 -134 5 -236
1 -218 -7 -200 -18 -204 127 -1 52 -5 101 -9 107 -5 9 -70 12 -230 12 l-223 0
-6 -106 c-4 -63 -3 -112 2 -118 6 -7 52 -12 117 -14 73 -1 110 -6 115 -14 4
-7 7 -226 6 -488 l-2 -475 -120 -5 -120 -5 0 -235 0 -235 218 -3 c139 -1 225
1 237 8 18 10 20 21 20 115 0 65 4 106 11 111 17 10 262 16 377 9 l102 -7 0
-114 c0 -134 -9 -127 140 -122 l95 3 5 115 5 115 235 3 c172 2 236 6 242 15 4
6 8 60 8 120 l0 107 109 0 c144 0 144 0 139 132 -5 121 -7 120 130 116 l97 -3
7 -355 c5 -265 3 -357 -5 -362 -7 -4 -117 -8 -244 -8 l-233 0 -5 -22 c-3 -13
-6 -66 -8 -118 l-2 -95 -224 -3 c-145 -1 -229 -6 -238 -13 -9 -8 -13 -42 -13
-120 l0 -109 -107 0 c-60 0 -113 -4 -120 -8 -8 -5 -13 -46 -15 -122 l-3 -115
-115 -5 -115 -5 -3 -109 c-2 -67 -7 -116 -15 -124 -10 -12 -50 -14 -237 -11
l-225 4 -5 -110 c-3 -60 -9 -116 -13 -122 -6 -10 -65 -13 -237 -13 -194 0
-231 2 -244 16 -13 12 -16 38 -16 120 l0 105 -107 -3 -108 -3 -9 -271 c-5
-150 -5 -311 -1 -358 l7 -86 103 0 c72 0 106 4 113 13 6 7 13 60 14 118 l3
104 109 3 c65 2 113 -1 121 -8 10 -8 11 -59 7 -230 -3 -157 -2 -223 7 -233 9
-11 52 -13 233 -9 126 2 228 9 236 14 15 13 17 204 2 213 -5 3 -56 9 -112 12
-57 3 -106 11 -110 17 -11 16 -9 198 2 216 7 11 34 15 117 15 l108 2 3 108 c1
60 7 114 13 121 6 8 46 12 115 13 104 1 104 1 114 -24 12 -31 13 -195 2 -212
-5 -8 -45 -13 -117 -15 l-110 -3 -3 -108 -3 -107 26 -10 c31 -12 175 -13 193
-2 8 6 14 47 19 120 l6 112 236 2 236 3 3 109 c1 61 7 116 13 123 7 8 46 13
117 15 l107 3 3 235 c2 172 6 236 15 242 6 4 60 8 120 8 l107 0 0 101 c0 55 4
109 10 119 8 16 24 18 120 19 109 1 111 0 120 -25 5 -13 9 -118 8 -233 -1
-114 2 -213 6 -219 8 -13 193 -17 212 -4 7 4 14 86 18 232 5 148 11 229 19
238 9 12 38 14 154 9 137 -5 183 -2 183 12 0 3 -33 40 -73 82 -126 132 -206
333 -207 521 0 94 34 224 84 323 49 96 75 132 146 205 28 28 48 56 45 61 -4 5
-83 9 -176 9 l-170 0 3 118 3 117 235 0 235 0 5 -65 c3 -36 8 -70 12 -76 5 -7
28 -1 70 21 35 17 82 39 105 48 48 19 70 49 49 66 -7 6 -60 12 -117 13 l-104
3 -6 75 c-4 41 -7 143 -8 226 -1 102 -5 154 -13 162 -8 8 -48 12 -113 12 -65
0 -105 4 -113 12 -17 17 -16 222 1 236 7 6 62 13 123 14 l109 3 2 95 c4 152
-7 140 133 140 l121 0 -3 -122 -3 -123 -115 -5 -115 -5 -3 -111 -3 -112 98 -6
c118 -8 362 -1 374 11 5 5 10 58 11 118 l3 110 118 3 117 3 0 107 c0 71 4 112
12 120 8 8 49 12 120 12 l108 0 0 240 0 241 -117 -3 -118 -3 -3 -117 -3 -118
-108 0 c-77 0 -112 -4 -119 -13 -6 -7 -13 -60 -14 -118 l-3 -104 -117 -3 -118
-3 0 361 0 360 -120 0 -120 0 -2 -237 -3 -238 -115 -3 c-100 -2 -116 0 -128
15 -9 13 -12 71 -12 228 0 115 1 215 0 221 0 8 -37 13 -109 16 -60 2 -113 7
-118 11 -4 5 -10 111 -13 235 l-5 227 -111 3 -111 3 -5 -227 c-4 -207 -6 -228
-23 -240 -20 -15 -87 -18 -172 -8 l-53 7 0 101 c0 56 -4 106 -8 112 -4 6 -56
14 -116 18 -60 4 -113 9 -118 12 -4 3 -8 54 -8 115 l0 109 -117 2 c-65 0 -171
2 -236 3 -81 2 -120 -1 -123 -9z m476 -339 c3 -58 10 -111 16 -117 6 -6 61
-14 122 -17 l111 -6 -4 -76 c-3 -42 -2 -95 1 -118 l6 -43 113 0 c84 0 115 -4
124 -14 8 -9 11 -50 9 -117 l-3 -104 -121 -3 -121 -3 -6 48 c-3 26 -3 69 0 95
3 26 3 58 -1 72 l-6 26 -230 0 c-172 0 -231 3 -237 13 -10 15 -14 440 -4 455
5 9 170 21 216 17 6 -1 12 -48 15 -108z m-737 -2080 c15 -11 17 -28 15 -127
l-3 -115 -120 0 -120 0 -3 114 c-2 75 1 118 9 127 15 19 197 20 222 1z m735
-114 c2 -103 1 -113 -17 -123 -13 -7 -97 -9 -238 -8 l-218 3 -3 109 c-1 61 0
116 2 123 4 11 52 13 238 11 l233 -3 3 -112z"/>
<path d="M4856 7668 c-3 -50 -6 -155 -6 -233 l0 -142 -47 -5 c-27 -2 -78 -2
-114 0 l-67 4 -6 37 c-3 20 -6 71 -6 114 l0 77 -120 0 -121 0 3 -112 3 -113
112 -5 c62 -3 115 -9 118 -12 4 -4 10 -57 13 -120 l7 -113 349 -3 c238 -1 353
1 360 8 6 6 11 39 12 73 0 34 1 83 2 110 l2 47 108 0 c59 0 113 4 120 8 9 7
12 61 10 238 l-3 229 -116 3 -116 3 -7 -233 c-3 -127 -8 -234 -11 -236 -6 -7
-215 -3 -226 3 -5 4 -9 99 -9 220 0 117 -3 220 -6 229 -5 13 -25 16 -119 16
l-112 0 -7 -92z"/>
<path d="M3460 7521 l-55 -6 0 -110 0 -110 118 -3 117 -3 0 114 0 114 -46 7
c-26 3 -54 5 -63 4 -9 -1 -41 -4 -71 -7z"/>
<path d="M3958 7522 l-68 -3 0 -113 0 -113 106 -7 c76 -5 109 -4 120 5 11 9
14 38 14 119 l0 108 -52 4 c-29 1 -83 2 -120 0z"/>
<path d="M6320 7285 c0 -129 -1 -236 -2 -237 -2 -1 -165 -5 -363 -8 l-360 -5
4 -351 c3 -292 1 -353 -10 -360 -8 -5 -63 -11 -124 -14 l-110 -5 -3 -104 c-2
-66 1 -108 9 -117 9 -11 51 -12 224 -8 147 4 220 2 234 -6 20 -10 21 -18 21
-238 0 -125 -4 -232 -8 -239 -5 -8 -45 -13 -117 -15 l-110 -3 -5 -113 c-4 -85
-9 -115 -20 -123 -22 -15 -446 -5 -465 11 -11 10 -15 37 -15 116 0 69 -4 105
-12 110 -6 4 -55 8 -109 9 -53 1 -102 5 -108 9 -7 5 -11 43 -11 102 0 136 2
134 -129 134 l-108 0 -7 31 c-11 55 -7 174 7 192 10 15 40 17 242 19 l230 3 3
118 3 117 -114 0 c-74 0 -117 4 -125 12 -8 8 -12 50 -12 125 l0 113 -115 0
-115 0 0 -114 c0 -81 -4 -117 -13 -124 -7 -6 -62 -13 -123 -14 l-109 -3 -3
-224 c-2 -156 1 -228 9 -237 8 -10 40 -14 120 -14 l109 0 0 -120 c0 -66 -3
-120 -7 -120 -5 0 -54 -1 -110 -3 -65 -1 -107 -6 -115 -14 -18 -19 0 -32 78
-53 192 -53 366 -152 450 -257 22 -26 44 -52 50 -58 7 -5 23 -28 37 -50 13
-22 31 -46 39 -52 11 -9 90 -13 284 -15 l269 -3 5 -115 5 -115 600 0 600 0 3
118 3 117 -103 0 c-57 0 -110 4 -118 10 -21 13 -28 211 -9 227 9 7 98 13 239
16 124 3 226 6 228 6 1 1 2 48 2 105 0 57 3 111 6 120 5 13 25 16 114 16 73 0
111 4 116 12 10 16 17 164 10 194 l-6 24 -355 0 c-409 0 -368 14 -365 -123 1
-45 2 -90 1 -100 -1 -16 -12 -17 -118 -15 l-118 3 0 120 0 120 95 2 c150 4
139 -6 142 126 l3 112 95 2 c151 4 140 -5 140 123 0 68 4 111 11 116 6 3 57 6
113 5 74 -2 106 2 113 11 7 8 9 51 4 123 l-6 110 -475 5 -475 5 -3 109 c-2 81
1 112 10 118 7 5 101 8 208 7 107 0 209 0 226 0 l31 1 7 76 c4 42 4 204 0 360
l-7 284 -119 0 -118 0 0 -235z m-7 -975 c4 0 6 -53 5 -117 l-3 -118 -109 -3
c-60 -1 -114 2 -119 7 -13 13 -9 224 5 232 8 5 97 5 221 -1z m5 -1089 c2 -85
-1 -117 -10 -123 -7 -4 -59 -8 -115 -8 -91 0 -103 2 -113 19 -11 21 -14 189
-4 215 5 14 23 16 123 14 l116 -3 3 -114z"/>
<path d="M495 7028 c-3 -7 -4 -168 -3 -358 l3 -345 230 0 230 0 1 228 c0 125
5 232 10 237 5 5 61 11 124 12 l115 3 0 115 0 115 -353 3 c-277 2 -354 0 -357
-10z"/>
<path d="M1464 7027 c-2 -7 -3 -60 -2 -118 l3 -104 110 0 110 0 3 118 3 117
-111 0 c-82 0 -112 -3 -116 -13z"/>
<path d="M8274 7027 c-2 -7 -3 -60 -2 -118 l3 -104 363 -3 362 -2 0 120 0 120
-360 0 c-289 0 -362 -3 -366 -13z"/>
<path d="M0 6560 l0 -240 115 0 115 0 -2 238 -3 237 -112 3 -113 3 0 -241z"/>
<path d="M1225 6788 c-3 -8 -4 -61 -3 -119 l3 -104 99 -3 c59 -2 103 1 110 8
14 14 20 191 7 210 -15 21 -208 28 -216 8z"/>
<path d="M1790 6791 l-85 -6 -5 -110 -5 -110 -105 -5 c-58 -3 -111 -9 -117
-13 -9 -6 -13 -41 -13 -118 l0 -109 240 0 240 0 0 230 0 230 -26 10 c-14 6
-28 9 -32 8 -4 -1 -45 -4 -92 -7z"/>
<path d="M4878 6789 c-15 -8 -18 -25 -18 -113 0 -86 3 -105 16 -110 9 -3 60
-6 115 -6 78 0 101 -3 105 -15 3 -8 7 -61 7 -117 l2 -103 118 -3 117 -3 0 229
c0 164 -3 231 -12 240 -15 15 -424 16 -450 1z"/>
<path d="M7793 6548 c-8 -14 -13 -195 -5 -215 3 -10 84 -13 358 -13 195 0 354
3 354 8 8 166 7 204 -7 217 -20 20 -687 22 -700 3z"/>
<path d="M8762 6548 c-8 -8 -12 -49 -12 -120 l0 -108 125 0 125 0 0 120 0 120
-113 0 c-75 0 -117 -4 -125 -12z"/>
<path d="M2295 6310 l-100 -5 -5 -103 c-3 -57 -1 -110 3 -118 6 -10 31 -14
102 -14 51 0 100 3 109 6 13 5 16 25 16 119 0 82 -3 114 -12 116 -7 2 -58 2
-113 -1z"/>
<path d="M0 5948 l0 -118 183 4 c100 3 205 5 233 5 l51 1 7 96 c6 75 4 100 -6
110 -10 10 -70 14 -241 16 l-227 3 0 -117z"/>
<path d="M5113 6063 c-9 -3 -13 -35 -13 -108 0 -96 2 -105 21 -116 23 -12 186
-8 207 5 17 10 17 205 0 210 -22 7 -202 15 -215 9z"/>
<path d="M737 6053 c-4 -3 -7 -49 -7 -102 -1 -129 -1 -130 -131 -133 l-104 -3
0 -235 0 -235 110 -5 110 -5 10 -115 10 -115 50 -6 c75 -9 163 1 170 19 8 21
9 918 1 931 -8 12 -208 16 -219 4z"/>
<path d="M8757 6053 c-4 -3 -7 -52 -7 -109 0 -84 3 -103 16 -108 9 -3 65 -6
125 -6 l109 0 0 115 0 115 -118 0 c-65 0 -122 -3 -125 -7z"/>
<path d="M3897 5824 c-11 -11 -8 -222 3 -229 5 -3 53 -8 107 -12 126 -7 125
-9 121 133 l-3 109 -111 3 c-60 1 -113 -1 -117 -4z"/>
<path d="M5354 5807 c-2 -7 -3 -58 -2 -113 l3 -99 115 0 115 0 3 92 c4 133 4
133 -124 133 -77 0 -106 -3 -110 -13z"/>
<path d="M17 5582 c-15 -3 -17 -19 -17 -123 l0 -120 113 3 112 3 3 113 c2 85
-1 113 -10 117 -17 5 -180 11 -201 7z"/>
<path d="M8514 5567 c-2 -7 -3 -60 -2 -118 l3 -104 106 -1 c58 -1 111 -4 118
-8 7 -5 11 -43 11 -110 0 -66 4 -106 12 -114 8 -8 50 -12 125 -12 l113 0 0
240 0 240 -240 0 c-190 0 -242 -3 -246 -13z"/>
<path d="M3970 5440 c-135 -32 -248 -84 -355 -162 -52 -38 -131 -120 -155
-162 -17 -28 -35 -58 -40 -66 -38 -65 -75 -181 -85 -272 -6 -56 17 -220 34
-243 5 -5 11 -22 15 -37 12 -52 122 -203 195 -267 38 -34 73 -71 76 -81 3 -11
-5 -43 -20 -74 -31 -65 -42 -121 -26 -130 6 -4 46 12 88 35 160 87 141 82 230
65 43 -9 96 -20 118 -26 46 -11 141 -13 210 -4 44 7 47 8 41 33 -30 145 -33
213 -12 287 8 27 17 65 20 85 6 35 85 139 165 218 47 45 179 117 260 141 78
23 178 40 240 40 l43 0 -7 48 c-3 26 -18 72 -33 102 -15 30 -32 67 -37 82 -18
46 -103 146 -165 196 -104 81 -227 145 -312 163 -29 6 -59 16 -67 23 -17 13
-368 19 -421 6z m100 -61 c0 -3 -33 -12 -72 -19 -40 -7 -78 -17 -83 -21 -6 -5
-30 -11 -53 -15 -24 -4 -42 -12 -42 -19 0 -8 -15 -17 -32 -20 -37 -8 -68 -31
-68 -52 0 -7 -6 -13 -13 -13 -7 0 -28 -13 -48 -29 -20 -17 -47 -33 -60 -36
-33 -8 -52 -25 -66 -57 -7 -16 -19 -28 -27 -28 -30 0 -3 38 75 105 43 38 79
72 79 77 0 4 6 8 13 8 6 0 25 14 41 30 18 19 40 30 56 30 15 0 33 7 40 15 7 8
28 17 49 21 20 4 45 13 56 20 19 14 155 16 155 3z m346 1 c8 0 14 -4 14 -10 0
-12 -69 -14 -97 -3 -15 6 -13 9 12 14 17 4 36 5 43 3 8 -2 20 -4 28 -4z m-558
-181 c-2 -6 -8 -10 -13 -10 -5 0 -11 4 -13 10 -2 6 4 11 13 11 9 0 15 -5 13
-11z m232 -8 c13 -24 13 -61 1 -61 -5 0 -12 9 -16 19 -3 11 -12 22 -20 25 -8
3 -15 12 -15 21 0 22 37 19 50 -4z m-82 -29 c2 -8 18 -22 35 -33 31 -18 31
-19 34 -113 3 -88 1 -97 -22 -124 -14 -17 -25 -37 -25 -46 0 -12 -11 -17 -42
-18 -96 -4 -148 5 -148 26 0 9 21 15 68 20 62 6 69 10 99 46 27 32 33 48 35
95 2 53 0 59 -28 84 -58 49 -74 61 -85 61 -5 0 -8 3 -6 8 9 13 80 8 85 -6z
m-178 -28 c0 -7 -44 -44 -52 -44 -15 0 -8 39 9 48 15 9 43 6 43 -4z m565 -24
c-3 -5 -13 -10 -21 -10 -8 0 -12 5 -9 10 3 6 13 10 21 10 8 0 12 -4 9 -10z
m-635 -105 c0 -70 -9 -91 -26 -64 -4 7 -7 40 -8 75 -1 55 1 64 16 64 16 0 18
-10 18 -75z m-289 19 c-11 -15 -21 -23 -21 -18 0 14 31 56 37 50 3 -3 -4 -17
-16 -32z m1173 -48 c6 -57 6 -59 -29 -91 -40 -38 -79 -50 -135 -40 -57 10 -49
21 20 28 51 6 64 12 90 39 22 25 29 43 30 74 0 34 8 61 15 52 1 -2 5 -29 9
-62z m-850 -72 c11 -28 6 -54 -9 -54 -10 0 -15 11 -15 35 0 36 13 47 24 19z
m-380 -20 c7 -18 0 -34 -15 -34 -5 0 -9 11 -9 25 0 28 15 34 24 9z"/>
<path d="M238 5293 c-3 -74 4 -178 12 -187 14 -14 198 -12 212 2 13 13 22 160
13 200 -5 21 -9 22 -120 22 l-115 0 -2 -37z"/>
<path d="M8268 4973 l-3 -118 -117 -3 -118 -3 0 -119 0 -120 229 0 c127 0 232
3 234 8 3 4 6 111 8 237 l4 230 -117 3 -117 3 -3 -118z"/>
<path d="M495 4838 c-2 -7 -6 -59 -8 -115 -4 -84 -2 -103 10 -107 25 -10 201
-7 208 4 10 16 18 175 11 204 l-6 26 -106 0 c-75 0 -106 -4 -109 -12z"/>
<path d="M0 4370 l0 -241 113 3 112 3 5 115 5 115 120 5 120 5 -1 115 0 115
-237 3 -237 2 0 -240z"/>
<path d="M737 4604 c-4 -4 -7 -56 -7 -116 0 -86 -3 -110 -15 -114 -8 -3 -61
-7 -117 -7 l-103 -2 0 -115 0 -115 352 -3 c415 -3 379 11 370 -138 -4 -70 -2
-96 8 -104 9 -7 81 -9 239 -4 l226 7 1 66 c1 107 -2 156 -12 162 -6 3 -55 6
-110 7 -56 1 -105 4 -110 8 -5 3 -9 51 -9 108 0 66 -4 106 -12 114 -9 9 -77
12 -245 12 l-232 0 -3 118 -3 117 -106 3 c-58 1 -108 -1 -112 -4z"/>
<path d="M1467 4604 c-4 -4 -7 -58 -7 -120 l0 -113 118 -3 117 -3 3 -117 3
-118 119 0 120 0 -2 238 -3 237 -231 3 c-127 1 -233 -1 -237 -4z"/>
<path d="M6571 4596 c-8 -9 -11 -50 -9 -117 l3 -104 118 -3 117 -3 0 121 0
120 -109 0 c-81 0 -112 -4 -120 -14z"/>
<path d="M8510 4370 l0 -241 118 3 117 3 5 115 5 115 123 3 122 3 0 119 0 120
-245 0 -245 0 0 -240z"/>
<path d="M4678 4489 c-24 -18 -28 -28 -28 -69 0 -42 4 -52 31 -75 46 -38 95
-32 127 15 62 92 -42 195 -130 129z"/>
<path d="M5134 4476 c-42 -42 -43 -70 -3 -119 25 -31 37 -37 68 -37 91 0 130
127 52 173 -45 26 -78 22 -117 -17z"/>
<path d="M5660 4236 c0 -158 -66 -296 -205 -428 -60 -57 -67 -67 -61 -91 8
-33 26 -36 26 -3 0 15 14 35 40 57 86 72 99 85 122 129 14 25 34 60 45 78 45
73 77 302 46 333 -11 10 -13 -5 -13 -75z"/>
<path d="M6327 4124 c-4 -4 -7 -58 -7 -121 l0 -113 120 0 121 0 -3 118 -3 117
-111 3 c-60 1 -113 -1 -117 -4z"/>
<path d="M3825 3924 c-22 -14 -68 -38 -102 -54 -34 -17 -67 -39 -72 -49 -6
-10 -9 -50 -7 -88 3 -38 1 -75 -3 -81 -4 -7 -49 -12 -121 -14 l-115 -3 -3
-125 c-2 -69 0 -176 3 -238 l7 -112 356 2 357 3 5 115 5 115 225 0 c124 0 231
-2 238 -4 9 -2 12 -56 12 -226 0 -198 2 -226 17 -241 15 -15 32 -16 137 -10
65 3 166 6 223 6 l104 0 -3 113 -3 112 -102 1 c-67 0 -106 4 -117 13 -13 11
-14 36 -9 177 7 183 5 190 -56 199 -52 9 -188 53 -248 81 -33 15 -70 24 -102
24 -74 0 -81 5 -81 57 0 38 -6 52 -42 95 -98 116 -103 120 -145 112 -21 -4
-41 -9 -45 -11 -5 -2 -8 -55 -8 -117 0 -85 -4 -116 -14 -125 -9 -8 -50 -11
-117 -9 l-104 3 -5 149 c-3 87 -9 151 -15 152 -5 2 -28 -8 -50 -22z m63 -392
c4 -143 5 -142 -123 -142 -130 0 -128 -2 -119 145 l7 106 116 -3 116 -3 3
-103z"/>
<path d="M247 3873 c-4 -3 -7 -55 -7 -114 0 -130 -17 -119 181 -111 l47 2 4
103 c3 56 3 108 0 115 -3 8 -35 12 -111 12 -59 0 -111 -3 -114 -7z"/>
<path d="M5420 3661 c0 -11 3 -27 6 -36 10 -24 22 0 16 31 -5 28 -22 32 -22 5z"/>
<path d="M5172 3658 c-7 -7 -72 -12 -190 -15 -213 -4 -207 -3 -157 -14 22 -4
100 -8 172 -8 101 -1 142 3 174 16 34 13 47 14 73 5 18 -7 41 -12 52 -11 13 0
8 4 -13 12 -17 7 -35 15 -39 20 -11 11 -59 8 -72 -5z"/>
<path d="M2682 3632 c-9 -7 -12 -61 -10 -238 l3 -229 100 -5 c55 -3 108 -2
118 3 15 7 17 28 17 236 0 199 -2 230 -16 235 -23 9 -197 7 -212 -2z"/>
<path d="M5330 3605 c7 -8 19 -15 26 -15 8 0 14 -3 14 -7 0 -5 14 -16 31 -26
30 -17 33 -17 50 -1 28 25 8 43 -39 37 -27 -4 -42 -1 -51 11 -7 9 -20 16 -28
16 -13 0 -13 -3 -3 -15z"/>
<path d="M0 2668 l0 -729 113 3 112 3 3 352 c2 323 4 353 20 362 9 5 61 7 114
6 120 -5 120 -5 116 137 l-3 103 -117 3 c-84 2 -118 6 -119 15 -1 7 -1 109 0
227 1 118 -2 221 -7 228 -7 10 -40 14 -121 16 l-111 2 0 -728z"/>
<path d="M8517 3384 c-4 -4 -7 -55 -7 -114 0 -69 -4 -110 -12 -118 -8 -8 -49
-12 -120 -12 l-108 0 0 -109 c0 -83 -3 -111 -15 -121 -10 -8 -41 -10 -112 -5
-130 9 -129 10 -117 -133 l9 -107 235 -5 235 -5 0 -235 0 -235 -115 -5 -115
-5 0 -115 0 -115 115 -5 115 -5 3 -356 2 -356 38 -7 c20 -3 130 -6 245 -6
l207 0 0 240 0 240 -62 1 c-117 1 -169 6 -179 16 -6 6 -8 144 -7 359 l3 349
123 3 122 3 0 119 0 119 -122 3 -123 3 0 120 0 120 123 3 122 3 0 120 0 121
-114 -4 c-69 -2 -119 1 -125 7 -6 6 -12 60 -13 120 l-3 110 -111 3 c-60 1
-113 -1 -117 -4z"/>
<path d="M2209 3140 l-24 -6 -3 -229 c-2 -163 -7 -232 -15 -237 -7 -4 -60 -8
-119 -8 l-108 0 -2 -237 -3 -238 -236 -3 -236 -2 -7 -112 c-4 -61 -3 -115 1
-119 5 -5 114 -10 243 -11 l235 -3 5 -120 5 -120 45 -3 c25 -2 77 -1 117 3
l72 7 3 116 3 117 118 3 118 3 -3 117 -3 117 -115 5 -115 5 0 115 0 115 233 3
c190 2 233 0 238 -11 3 -8 8 -115 12 -238 l7 -224 360 -5 360 -5 0 -120 0
-120 -112 -3 c-130 -3 -118 9 -128 -128 -4 -66 -3 -85 10 -97 13 -13 61 -15
367 -11 l353 5 3 220 c1 140 -1 227 -8 239 -10 18 -21 20 -119 20 -94 0 -110
2 -116 18 -3 9 -3 171 1 360 l7 342 46 1 c157 4 173 5 181 19 6 8 10 61 10
116 0 87 -2 103 -17 109 -10 3 -118 5 -241 4 -182 -1 -226 1 -233 12 -5 8 -9
59 -9 115 l0 101 -99 6 c-55 4 -106 4 -115 1 -14 -5 -16 -32 -18 -178 -1 -94
-2 -197 -2 -229 -1 -32 -6 -61 -13 -65 -13 -8 -461 -8 -469 1 -4 3 -9 111 -13
239 l-6 233 -211 0 c-117 0 -222 -2 -235 -5z m949 -834 c2 -81 -1 -112 -10
-118 -15 -9 -199 -11 -222 -2 -13 5 -16 25 -16 113 0 59 3 111 7 115 4 3 59 5
122 4 l116 -3 3 -109z"/>
<path d="M4240 3140 l-105 -5 -3 -224 c-1 -145 -6 -229 -13 -238 -8 -9 -42
-13 -120 -13 l-109 0 0 -360 0 -361 118 3 117 3 5 115 5 115 117 3 117 3 3
-118 3 -118 115 -3 c76 -2 117 -7 122 -15 4 -7 8 -114 8 -238 l0 -226 232 -6
c171 -5 234 -10 240 -19 14 -23 10 -204 -5 -217 -9 -7 -93 -12 -238 -13 l-224
-3 -3 -116 -3 -116 107 -6 c59 -4 164 -7 234 -7 107 0 129 -3 134 -16 12 -32
7 -211 -7 -222 -7 -6 -60 -13 -118 -14 l-104 -3 -3 -104 c-2 -77 1 -107 10
-113 7 -4 111 -8 230 -8 175 0 219 3 231 14 11 12 14 57 15 231 0 120 4 221 9
226 5 5 110 8 239 7 l229 -3 5 -112 c3 -62 9 -115 12 -119 8 -7 220 -6 228 2
3 3 7 56 10 117 l5 112 107 5 c60 4 113 11 118 16 7 7 10 54 8 120 l-3 109
-109 3 c-61 1 -116 8 -123 14 -9 7 -13 41 -13 114 0 122 7 117 -135 112 l-90
-3 -3 -104 c-1 -58 -8 -111 -14 -118 -8 -10 -62 -13 -232 -13 -122 0 -228 5
-236 10 -20 12 -25 214 -6 229 7 6 61 12 122 13 l109 3 3 110 c2 72 7 112 15
117 7 4 58 8 115 8 77 0 104 3 108 13 3 8 8 169 12 358 l7 344 112 3 c133 3
125 -5 121 142 l-3 95 -228 5 c-126 3 -235 1 -243 -3 -13 -7 -14 -40 -8 -230
6 -189 5 -224 -8 -234 -10 -9 -81 -13 -244 -15 l-229 -3 -3 -107 c-2 -74 -7
-109 -16 -117 -9 -8 -54 -11 -127 -9 l-114 3 -5 115 -5 115 -115 5 -115 5 0
115 0 115 360 5 360 5 0 235 0 235 -112 3 -113 3 0 -109 c0 -71 -4 -112 -12
-120 -17 -17 -699 -17 -716 0 -9 9 -12 76 -12 239 0 173 -3 228 -12 230 -7 2
-60 2 -118 -1z"/>
<path d="M6325 3138 c-3 -7 -6 -224 -7 -483 l-3 -470 -117 -3 -118 -3 0 -239
0 -240 120 0 119 0 3 118 3 117 115 0 115 0 3 -117 c1 -65 -1 -119 -5 -119 -4
-1 -48 -3 -98 -4 -49 -2 -100 -3 -113 -4 l-22 -1 2 -237 3 -238 113 2 c63 1
115 3 117 5 1 2 5 49 8 106 2 57 9 108 14 113 5 5 56 8 114 7 l104 -3 0 -115
0 -115 -111 -3 -111 -3 -7 -52 c-3 -29 -6 -78 -6 -109 0 -89 -16 -85 376 -81
240 2 341 0 350 -8 10 -8 14 -40 14 -115 0 -71 4 -105 12 -110 13 -8 197 -8
205 0 2 2 5 49 6 105 2 64 7 105 15 113 12 12 187 14 225 2 15 -5 17 -19 17
-108 0 -66 4 -106 12 -114 8 -8 49 -12 120 -12 l108 0 2 93 c0 50 0 208 -1
350 -1 163 2 264 9 277 9 17 23 20 123 22 l112 3 3 99 c2 64 -1 103 -9 112 -8
10 -38 14 -114 14 -71 0 -106 4 -113 13 -7 8 -11 94 -12 237 0 123 -4 228 -8
232 -4 4 -332 9 -727 10 l-720 3 0 115 0 115 115 5 115 5 0 115 0 115 -115 5
-115 5 -5 240 -5 240 -113 3 c-84 2 -114 -1 -117 -10z m1439 -1204 c14 -5 16
-46 16 -359 l0 -354 -22 -7 c-33 -12 -689 -5 -703 6 -9 8 -11 103 -9 363 1
193 3 353 3 355 2 5 701 2 715 -4z"/>
<path d="M7307 1683 c-4 -3 -7 -53 -7 -109 0 -127 -1 -126 131 -116 l94 7 3
90 c5 142 10 135 -112 135 -56 0 -106 -3 -109 -7z"/>
<path d="M1778 2903 l-78 -4 0 -113 c0 -82 3 -115 13 -118 24 -8 209 0 218 9
5 5 8 58 7 119 l-3 109 -40 1 c-22 0 -75 -1 -117 -3z"/>
<path d="M1462 2543 l3 -118 90 -3 c143 -5 135 -12 135 123 l0 115 -115 0
-116 0 3 -117z"/>
<path d="M7782 2543 l3 -118 115 0 115 0 3 118 3 117 -121 0 -121 0 3 -117z"/>
<path d="M494 2407 c-2 -7 -3 -60 -2 -118 l3 -104 225 -3 c186 -2 227 -5 236
-17 7 -10 9 -48 6 -108 -4 -75 -2 -95 11 -105 10 -9 48 -12 128 -10 l114 3 0
115 0 115 115 5 115 5 3 104 c2 67 -1 108 -9 117 -17 20 -937 21 -945 1z"/>
<path d="M2432 1927 c-6 -7 -13 -62 -14 -123 l-3 -109 -111 -3 -111 -3 -7 -61
c-3 -33 -6 -137 -6 -230 0 -151 2 -169 18 -176 14 -6 220 -7 420 -3 l42 1 0
360 0 360 -109 0 c-77 0 -112 -4 -119 -13z"/>
<path d="M4142 1928 c-8 -8 -12 -47 -12 -115 0 -98 1 -104 23 -112 17 -6 120
-7 210 -1 4 0 6 53 5 118 l-3 117 -105 3 c-73 2 -109 -1 -118 -10z"/>
<path d="M0 845 l0 -845 845 0 845 0 6 26 c4 14 4 390 0 836 -5 634 -9 814
-18 820 -7 4 -388 8 -845 8 l-833 0 0 -845z m1458 11 c1 -436 -1 -602 -9 -612
-10 -12 -114 -14 -613 -12 l-601 3 3 585 c1 322 2 595 2 607 0 12 8 24 18 26
9 3 283 4 607 3 l590 -1 3 -599z"/>
<path d="M485 1189 c-10 -31 6 -682 17 -696 14 -17 693 -18 704 -1 5 7 8 168
6 357 -1 263 -5 347 -14 353 -7 4 -169 8 -360 8 -342 0 -347 0 -353 -21z"/>
<path d="M3897 1443 c-4 -3 -7 -55 -7 -114 0 -92 2 -108 18 -114 9 -3 171 -3
360 1 l343 7 -3 111 -3 111 -351 3 c-193 1 -353 -1 -357 -5z"/>
<path d="M1946 1194 c-3 -8 -6 -168 -6 -354 0 -261 3 -340 13 -348 7 -6 57
-10 116 -10 71 0 105 -3 111 -12 4 -6 6 -58 5 -113 -2 -60 1 -107 7 -114 8
-10 68 -13 238 -13 l228 0 7 -115 7 -115 119 0 120 0 -3 113 -3 112 -113 3
c-112 3 -113 3 -123 30 -11 28 -5 439 7 451 12 12 214 13 229 1 11 -9 15 -37
15 -110 0 -72 4 -101 14 -109 16 -13 183 -10 204 3 9 5 12 70 12 231 0 264
-10 245 132 245 60 0 98 4 106 12 13 13 17 183 6 212 -5 14 -36 16 -239 16
l-233 0 -6 -22 c-3 -13 -6 -64 -6 -114 0 -56 -4 -94 -12 -102 -8 -8 -48 -12
-113 -12 -65 0 -105 -4 -113 -12 -8 -8 -12 -49 -12 -120 l0 -108 -235 0 -235
0 -1 83 c-1 45 -4 154 -8 242 l-6 160 -111 3 c-95 2 -113 0 -118 -14z"/>
<path d="M3654 1197 c-2 -7 -3 -62 -2 -123 l3 -109 91 -3 c50 -1 103 2 117 7
27 10 27 11 27 114 0 67 -4 107 -12 115 -18 18 -217 17 -224 -1z"/>
<path d="M8282 1198 c-9 -9 -12 -76 -12 -240 0 -174 -3 -230 -12 -233 -7 -2
-60 -6 -118 -9 -58 -3 -106 -5 -107 -5 -2 -1 -3 -47 -3 -103 0 -57 -4 -109 -9
-116 -10 -16 -205 -26 -232 -11 -16 8 -19 25 -21 117 l-3 107 -106 3 -106 3
-7 -62 c-3 -34 -6 -84 -6 -110 0 -63 -15 -71 -128 -67 -48 1 -93 -1 -99 -5 -9
-6 -13 -40 -13 -111 0 -66 -4 -106 -12 -114 -8 -8 -52 -12 -130 -12 l-118 0 0
120 0 120 -77 2 c-43 1 -87 1 -98 0 -11 0 -30 1 -42 4 -22 4 -23 8 -23 119 l0
115 -240 0 -240 0 2 -237 3 -238 118 -3 117 -3 0 -114 0 -115 120 0 119 0 3
113 3 112 118 3 117 3 2 -63 c3 -88 5 -130 6 -150 2 -17 26 -18 362 -18 l360
0 0 110 c0 94 2 110 18 118 19 9 216 7 232 -3 6 -4 10 -52 10 -116 l0 -109
485 0 485 0 0 355 0 356 -122 -3 -123 -3 -3 -230 c-2 -168 -6 -231 -15 -237
-15 -10 -440 -9 -456 1 -8 5 -11 41 -9 122 l3 114 104 3 c58 1 111 8 118 14
11 9 13 78 13 342 -1 182 -3 341 -7 354 -5 21 -10 22 -107 22 -66 0 -106 -4
-114 -12z"/>
<path d="M4377 953 c-10 -9 -9 -221 1 -227 11 -7 220 -12 226 -5 8 7 10 51 8
152 l-2 87 -113 0 c-63 0 -117 -3 -120 -7z"/>
<path d="M3652 598 l3 -113 115 -5 115 -5 3 -237 2 -238 240 0 240 0 0 234 c0
201 -2 235 -15 240 -9 3 -48 3 -88 0 -40 -3 -85 -1 -102 4 l-30 8 -5 110 -5
109 -238 3 -238 2 3 -112z"/>
<path d="M3165 472 c-7 -7 -6 -437 1 -456 5 -13 25 -16 120 -16 l114 0 0 230
c0 176 -3 232 -12 235 -21 6 -217 12 -223 7z"/>
<path d="M4645 472 c-31 -7 -35 -20 -35 -119 0 -124 3 -126 129 -117 53 3 100
10 104 14 4 3 6 56 5 116 l-3 109 -90 1 c-49 1 -99 -1 -110 -4z"/>
<path d="M5843 467 c-11 -19 -2 -221 10 -229 7 -4 58 -8 115 -8 l102 0 1 28
c5 93 4 194 -2 204 -9 15 -217 20 -226 5z"/>
<path d="M4873 218 c-4 -7 -9 -59 -11 -115 l-4 -103 115 0 116 0 3 105 c2 58
2 110 0 115 -5 15 -209 13 -219 -2z"/>
<path d="M6080 115 l0 -115 120 0 120 0 0 115 0 115 -120 0 -120 0 0 -115z"/>
</g>
</svg>
